<svg xmlns="http://www.w3.org/2000/svg" xmlns:xlink="http://www.w3.org/1999/xlink" version="1.1" xml:space="preserve" viewBox="10.41 129.62 617.78 220.11"><desc>Created with Fabric.js 3.6.6</desc><defs></defs><g transform="matrix(4.44 0 0 4.44 319.25 247.61)"><g style="">		<g transform="matrix(1 0 0 1 -58.89 -9.44)"><path style="stroke: none; stroke-width: 1; stroke-dasharray: none; stroke-linecap: butt; stroke-dashoffset: 0; stroke-linejoin: miter; stroke-miterlimit: 4;  fill: white; fill-rule: nonzero; opacity: 1;" transform=" translate(-11.61, -13.57)" d="M 12.1312 6.0703 L 5.93432 24.9583 H 0.942383 L 9.40833 2.17377 H 12.585 L 12.1312 6.0703 Z M 17.2796 24.9583 L 11.0671 6.0703 L 10.5663 2.17377 H 13.7743 L 22.2872 24.9583 H 17.2796 Z M 16.9979 16.4767 V 20.1541 H 4.9641 V 16.4767 H 16.9979 Z" stroke-linecap="round"></path></g>		<g transform="matrix(1 0 0 1 -34.76 -6.67)"><path style="stroke: none; stroke-width: 1; stroke-dasharray: none; stroke-linecap: butt; stroke-dashoffset: 0; stroke-linejoin: miter; stroke-miterlimit: 4;  fill: white; fill-rule: nonzero; opacity: 1;" transform=" translate(-35.75, -16.34)" d="M 28.1242 11.5317 V 24.9583 H 23.6017 V 8.02638 H 27.8425 L 28.1242 11.5317 Z M 27.4982 15.8977 H 26.2463 C 26.2463 14.7188 26.3872 13.6338 26.6688 12.6427 C 26.9609 11.6412 27.3835 10.7753 27.9364 10.0451 C 28.4997 9.30436 29.1935 8.73057 30.0177 8.32371 C 30.8418 7.91684 31.7964 7.71341 32.8814 7.71341 C 33.6325 7.71341 34.3211 7.82817 34.947 8.05768 C 35.5729 8.27676 36.1102 8.62625 36.5588 9.10614 C 37.0178 9.5756 37.3725 10.1911 37.6229 10.9527 C 37.8733 11.7038 37.9985 12.6062 37.9985 13.6599 V 24.9583 H 33.4917 V 14.1607 C 33.4917 13.3887 33.3873 12.794 33.1787 12.3767 C 32.9701 11.9594 32.6727 11.6673 32.2867 11.5004 C 31.9112 11.3335 31.4573 11.25 30.9253 11.25 C 30.3411 11.25 29.8299 11.37 29.3917 11.6099 C 28.964 11.8499 28.6093 12.1837 28.3276 12.6115 C 28.0459 13.0288 27.8373 13.5191 27.7017 14.0824 C 27.566 14.6458 27.4982 15.2509 27.4982 15.8977 Z M 37.576 15.3813 L 35.9642 15.5847 C 35.9642 14.4789 36.0998 13.4513 36.371 12.5019 C 36.6527 11.5526 37.0648 10.718 37.6073 9.99812 C 38.1602 9.27828 38.8435 8.72014 39.6573 8.32371 C 40.471 7.91684 41.4099 7.71341 42.474 7.71341 C 43.2878 7.71341 44.0285 7.83338 44.6961 8.07333 C 45.3638 8.30284 45.9324 8.6732 46.4018 9.18439 C 46.8817 9.68515 47.2469 10.3424 47.4973 11.1561 C 47.7581 11.9699 47.8885 12.9662 47.8885 14.145 V 24.9583 H 43.366 V 14.145 C 43.366 13.3626 43.2617 12.7679 43.053 12.3611 C 42.8548 11.9438 42.5627 11.6569 42.1767 11.5004 C 41.8011 11.3335 41.3525 11.25 40.8309 11.25 C 40.2884 11.25 39.8137 11.3596 39.4069 11.5786 C 39 11.7873 38.661 12.0794 38.3897 12.455 C 38.1185 12.8305 37.915 13.2687 37.7794 13.7695 C 37.6438 14.2598 37.576 14.7971 37.576 15.3813 Z" stroke-linecap="round"></path></g>		<g transform="matrix(1 0 0 1 -12.07 -6.51)"><path style="stroke: none; stroke-width: 1; stroke-dasharray: none; stroke-linecap: butt; stroke-dashoffset: 0; stroke-linejoin: miter; stroke-miterlimit: 4;  fill: white; fill-rule: nonzero; opacity: 1;" transform=" translate(-58.43, -16.49)" d="M 59.1712 25.2712 C 57.8567 25.2712 56.6778 25.0626 55.6346 24.6453 C 54.5913 24.2176 53.7046 23.6281 52.9743 22.877 C 52.2545 22.1259 51.7015 21.2547 51.3155 20.2637 C 50.9295 19.2621 50.7365 18.198 50.7365 17.0713 V 16.4454 C 50.7365 15.1622 50.9191 13.9885 51.2842 12.9244 C 51.6494 11.8603 52.171 10.937 52.8491 10.1546 C 53.5377 9.37217 54.3722 8.7723 55.3529 8.35501 C 56.3336 7.92727 57.4394 7.71341 58.6704 7.71341 C 59.8702 7.71341 60.9343 7.91163 61.8628 8.30806 C 62.7912 8.70449 63.5685 9.26785 64.1944 9.99812 C 64.8308 10.7284 65.3107 11.6047 65.6341 12.6271 C 65.9575 13.639 66.1192 14.7658 66.1192 16.0072 V 17.8851 H 52.6613 V 14.8805 H 61.6906 V 14.5362 C 61.6906 13.9103 61.5759 13.3522 61.3463 12.8618 C 61.1273 12.3611 60.7934 11.9646 60.3448 11.6725 C 59.8962 11.3804 59.3224 11.2344 58.6235 11.2344 C 58.0288 11.2344 57.5176 11.3648 57.0899 11.6256 C 56.6622 11.8864 56.3127 12.2515 56.0414 12.721 C 55.7806 13.1905 55.5824 13.7434 55.4468 14.3798 C 55.3216 15.0057 55.259 15.6942 55.259 16.4454 V 17.0713 C 55.259 17.7494 55.3529 18.3754 55.5407 18.9492 C 55.7389 19.523 56.0154 20.0185 56.3701 20.4358 C 56.7352 20.8531 57.1734 21.1765 57.6846 21.406 C 58.2062 21.6355 58.7956 21.7503 59.4529 21.7503 C 60.2666 21.7503 61.0229 21.5938 61.7219 21.2808 C 62.4313 20.9574 63.0416 20.4723 63.5528 19.8255 L 65.7436 22.2041 C 65.3889 22.7153 64.9038 23.2056 64.2883 23.6751 C 63.6832 24.1445 62.9529 24.5305 62.0975 24.8331 C 61.242 25.1252 60.2666 25.2712 59.1712 25.2712 Z" stroke-linecap="round"></path></g>		<g transform="matrix(1 0 0 1 2.99 -6.67)"><path style="stroke: none; stroke-width: 1; stroke-dasharray: none; stroke-linecap: butt; stroke-dashoffset: 0; stroke-linejoin: miter; stroke-miterlimit: 4;  fill: white; fill-rule: nonzero; opacity: 1;" transform=" translate(-73.49, -16.34)" d="M 73.1924 11.7195 V 24.9583 H 68.6856 V 8.02638 H 72.9264 L 73.1924 11.7195 Z M 78.2939 7.91684 L 78.2156 12.095 C 77.9966 12.0637 77.7305 12.0377 77.4176 12.0168 C 77.115 11.9855 76.8386 11.9699 76.5882 11.9699 C 75.9518 11.9699 75.3989 12.0533 74.9294 12.2202 C 74.4704 12.3767 74.0844 12.6115 73.7714 12.9244 C 73.4689 13.2374 73.2394 13.6182 73.0829 14.0668 C 72.9368 14.5154 72.8534 15.0266 72.8325 15.6004 L 71.9249 15.3187 C 71.9249 14.2233 72.0344 13.2165 72.2535 12.2985 C 72.4726 11.37 72.7908 10.5615 73.2081 9.87293 C 73.6358 9.18439 74.1574 8.65233 74.7729 8.27676 C 75.3884 7.90119 76.0926 7.71341 76.8855 7.71341 C 77.1359 7.71341 77.3915 7.73427 77.6523 7.776 C 77.9131 7.8073 78.127 7.85425 78.2939 7.91684 Z" stroke-linecap="round"></path></g>		<g transform="matrix(1 0 0 1 12.42 -6.5)"><path style="stroke: none; stroke-width: 1; stroke-dasharray: none; stroke-linecap: butt; stroke-dashoffset: 0; stroke-linejoin: miter; stroke-miterlimit: 4;  fill: white; fill-rule: nonzero; opacity: 1;" transform=" translate(-82.92, -16.49)" d="M 85.1793 8.02638 V 24.9583 H 80.6568 V 8.02638 H 85.1793 Z" stroke-linecap="round"></path></g>		<g transform="matrix(1 0 0 1 25.09 -6.51)"><path style="stroke: none; stroke-width: 1; stroke-dasharray: none; stroke-linecap: butt; stroke-dashoffset: 0; stroke-linejoin: miter; stroke-miterlimit: 4;  fill: white; fill-rule: nonzero; opacity: 1;" transform=" translate(-95.59, -16.49)" d="M 95.8987 21.7503 C 96.4516 21.7503 96.9419 21.646 97.3697 21.4373 C 97.7974 21.2182 98.1312 20.9157 98.3712 20.5297 C 98.6215 20.1333 98.752 19.669 98.7624 19.137 H 103.003 C 102.993 20.3263 102.675 21.3852 102.049 22.3136 C 101.423 23.2317 100.583 23.9568 99.5292 24.4888 C 98.4755 25.0104 97.2966 25.2712 95.9926 25.2712 C 94.6781 25.2712 93.5305 25.0522 92.5499 24.614 C 91.5796 24.1758 90.7711 23.5708 90.1243 22.7988 C 89.4775 22.0163 88.9924 21.1087 88.669 20.0759 C 88.3456 19.0326 88.1839 17.9164 88.1839 16.7271 V 16.2732 C 88.1839 15.0735 88.3456 13.9572 88.669 12.9244 C 88.9924 11.8812 89.4775 10.9736 90.1243 10.2016 C 90.7711 9.41912 91.5796 8.80882 92.5499 8.37066 C 93.5201 7.93249 94.6572 7.71341 95.9613 7.71341 C 97.3488 7.71341 98.5642 7.97944 99.6074 8.51149 C 100.661 9.04355 101.485 9.80512 102.08 10.7962 C 102.685 11.7769 102.993 12.9401 103.003 14.2859 H 98.7624 C 98.752 13.7225 98.632 13.2113 98.4025 12.7523 C 98.1834 12.2933 97.86 11.9281 97.4322 11.6569 C 97.0149 11.3752 96.4985 11.2344 95.883 11.2344 C 95.2258 11.2344 94.6885 11.3752 94.2712 11.6569 C 93.8539 11.9281 93.5305 12.3037 93.301 12.7836 C 93.0715 13.253 92.9098 13.7903 92.8159 14.3954 C 92.7324 14.9901 92.6907 15.616 92.6907 16.2732 V 16.7271 C 92.6907 17.3843 92.7324 18.0155 92.8159 18.6206 C 92.8993 19.2256 93.0558 19.7629 93.2853 20.2324 C 93.5253 20.7018 93.8539 21.0722 94.2712 21.3434 C 94.6885 21.6147 95.231 21.7503 95.8987 21.7503 Z" stroke-linecap="round"></path></g>		<g transform="matrix(1 0 0 1 41.93 -6.51)"><path style="stroke: none; stroke-width: 1; stroke-dasharray: none; stroke-linecap: butt; stroke-dashoffset: 0; stroke-linejoin: miter; stroke-miterlimit: 4;  fill: white; fill-rule: nonzero; opacity: 1;" transform=" translate(-112.43, -16.49)" d="M 114.755 21.14 V 13.5973 C 114.755 13.0548 114.667 12.5906 114.489 12.2046 C 114.312 11.8082 114.036 11.5004 113.66 11.2813 C 113.295 11.0622 112.82 10.9527 112.236 10.9527 C 111.735 10.9527 111.302 11.0414 110.937 11.2187 C 110.572 11.3856 110.29 11.6308 110.092 11.9542 C 109.894 12.2672 109.795 12.6375 109.795 13.0653 H 105.288 C 105.288 12.3454 105.455 11.6621 105.789 11.0153 C 106.122 10.3685 106.608 9.7999 107.244 9.30958 C 107.88 8.80882 108.637 8.4176 109.513 8.13592 C 110.4 7.85425 111.391 7.71341 112.486 7.71341 C 113.801 7.71341 114.969 7.93249 115.992 8.37066 C 117.014 8.80882 117.817 9.46606 118.401 10.3424 C 118.996 11.2187 119.293 12.3141 119.293 13.6286 V 20.874 C 119.293 21.8025 119.351 22.564 119.466 23.1587 C 119.58 23.7429 119.747 24.2541 119.966 24.6922 V 24.9583 H 115.413 C 115.194 24.4992 115.027 23.9255 114.912 23.2369 C 114.808 22.5379 114.755 21.839 114.755 21.14 Z M 115.35 14.6458 L 115.381 17.1965 H 112.862 C 112.267 17.1965 111.751 17.2643 111.313 17.4 C 110.874 17.5356 110.515 17.7286 110.233 17.979 C 109.951 18.2189 109.743 18.5006 109.607 18.824 C 109.482 19.1474 109.419 19.5021 109.419 19.8881 C 109.419 20.2741 109.508 20.6236 109.685 20.9366 C 109.863 21.2391 110.118 21.479 110.452 21.6564 C 110.786 21.8233 111.177 21.9068 111.626 21.9068 C 112.304 21.9068 112.893 21.7712 113.394 21.4999 C 113.895 21.2287 114.281 20.8948 114.552 20.4984 C 114.834 20.102 114.98 19.7264 114.99 19.3717 L 116.179 21.2808 C 116.012 21.7086 115.783 22.1519 115.491 22.611 C 115.209 23.07 114.849 23.5029 114.411 23.9098 C 113.973 24.3062 113.446 24.6349 112.831 24.8957 C 112.215 25.1461 111.485 25.2712 110.64 25.2712 C 109.565 25.2712 108.59 25.0574 107.713 24.6297 C 106.848 24.1915 106.159 23.5916 105.648 22.8301 C 105.147 22.058 104.897 21.1817 104.897 20.2011 C 104.897 19.3143 105.064 18.5267 105.397 17.8381 C 105.731 17.1496 106.222 16.5706 106.868 16.1011 C 107.526 15.6212 108.345 15.2613 109.325 15.0214 C 110.306 14.771 111.443 14.6458 112.737 14.6458 H 115.35 Z" stroke-linecap="round"></path></g>		<g transform="matrix(1 0 0 1 53.38 -18)"><path style="stroke: none; stroke-width: 1; stroke-dasharray: none; stroke-linecap: butt; stroke-dashoffset: 0; stroke-linejoin: miter; stroke-miterlimit: 4;  fill: white; fill-rule: nonzero; opacity: 1;" transform=" translate(-123.89, -5)" d="M 126.351 0.921875 V 3.30048 C 126.351 3.97859 126.221 4.67756 125.96 5.3974 C 125.709 6.11724 125.37 6.80057 124.943 7.44738 C 124.515 8.08376 124.045 8.62625 123.534 9.07485 L 121.422 7.85425 C 121.808 7.23873 122.136 6.57105 122.408 5.85121 C 122.679 5.12094 122.814 4.27591 122.814 3.31613 V 0.921875 H 126.351 Z" stroke-linecap="round"></path></g>		<g transform="matrix(1 0 0 1 62.37 -6.51)"><path style="stroke: none; stroke-width: 1; stroke-dasharray: none; stroke-linecap: butt; stroke-dashoffset: 0; stroke-linejoin: miter; stroke-miterlimit: 4;  fill: white; fill-rule: nonzero; opacity: 1;" transform=" translate(-132.88, -16.49)" d="M 135.709 20.2793 C 135.709 19.9559 135.615 19.6638 135.427 19.403 C 135.239 19.1422 134.89 18.9022 134.379 18.6831 C 133.878 18.4536 133.153 18.245 132.204 18.0572 C 131.348 17.8694 130.55 17.6347 129.809 17.353 C 129.079 17.0609 128.443 16.7114 127.9 16.3045 C 127.368 15.8977 126.951 15.4178 126.648 14.8649 C 126.346 14.3015 126.195 13.6599 126.195 12.9401 C 126.195 12.2307 126.346 11.563 126.648 10.937 C 126.961 10.3111 127.405 9.75817 127.978 9.27828 C 128.563 8.78795 129.272 8.40717 130.107 8.13592 C 130.952 7.85425 131.901 7.71341 132.955 7.71341 C 134.426 7.71341 135.688 7.94814 136.742 8.4176 C 137.806 8.88706 138.62 9.53387 139.183 10.358 C 139.757 11.1718 140.044 12.1003 140.044 13.1435 H 135.537 C 135.537 12.7053 135.443 12.3141 135.255 11.9699 C 135.078 11.6152 134.796 11.3387 134.41 11.1405 C 134.035 10.9318 133.544 10.8275 132.939 10.8275 C 132.438 10.8275 132.005 10.9162 131.64 11.0935 C 131.275 11.2604 130.993 11.49 130.795 11.7821 C 130.607 12.0637 130.514 12.3767 130.514 12.721 C 130.514 12.9818 130.566 13.2165 130.67 13.4252 C 130.785 13.6234 130.967 13.806 131.218 13.9729 C 131.468 14.1398 131.792 14.2963 132.188 14.4423 C 132.595 14.578 133.096 14.7032 133.69 14.8179 C 134.911 15.0683 136.001 15.3969 136.961 15.8038 C 137.921 16.2002 138.682 16.7427 139.246 17.4313 C 139.809 18.1094 140.091 19.0013 140.091 20.1072 C 140.091 20.8583 139.924 21.5469 139.59 22.1728 C 139.256 22.7988 138.776 23.3465 138.15 23.8159 C 137.524 24.2749 136.773 24.6349 135.897 24.8957 C 135.031 25.1461 134.055 25.2712 132.97 25.2712 C 131.395 25.2712 130.06 24.9896 128.964 24.4262 C 127.879 23.8629 127.055 23.1482 126.492 22.2823 C 125.939 21.406 125.662 20.5088 125.662 19.5908 H 129.935 C 129.955 20.2063 130.112 20.7018 130.404 21.0774 C 130.707 21.453 131.087 21.7242 131.546 21.8911 C 132.016 22.058 132.522 22.1415 133.064 22.1415 C 133.649 22.1415 134.134 22.0633 134.52 21.9068 C 134.906 21.7399 135.198 21.5208 135.396 21.2495 C 135.605 20.9679 135.709 20.6444 135.709 20.2793 Z" stroke-linecap="round"></path></g>		<g transform="matrix(1 0 0 1 -16.76 13.97)"><path style="stroke: none; stroke-width: 1; stroke-dasharray: none; stroke-linecap: butt; stroke-dashoffset: 0; stroke-linejoin: miter; stroke-miterlimit: 4;  fill: white; fill-rule: nonzero; opacity: 1;" transform=" translate(-53.75, -36.96)" d="M 52.7073 42.6602 H 50.3287 L 50.3444 41.4318 H 52.7073 C 53.5211 41.4318 54.1992 41.2623 54.7417 40.9232 C 55.2841 40.579 55.691 40.0991 55.9623 39.4836 C 56.2387 38.8628 56.3769 38.1378 56.3769 37.3084 V 36.612 C 56.3769 35.96 56.2987 35.381 56.1422 34.875 C 55.9857 34.3638 55.7562 33.9335 55.4537 33.584 C 55.1511 33.2293 54.7808 32.9607 54.3426 32.7781 C 53.9097 32.5955 53.4115 32.5042 52.8482 32.5042 H 50.2818 V 31.268 H 52.8482 C 53.5941 31.268 54.2748 31.3932 54.8903 31.6436 C 55.5058 31.8887 56.0353 32.246 56.4787 32.7155 C 56.9273 33.1797 57.2715 33.7431 57.5115 34.4056 C 57.7514 35.0628 57.8714 35.8035 57.8714 36.6277 V 37.3084 C 57.8714 38.1325 57.7514 38.8759 57.5115 39.5383 C 57.2715 40.1956 56.9246 40.7563 56.4708 41.2206 C 56.0222 41.6848 55.4798 42.0421 54.8434 42.2925 C 54.2122 42.5377 53.5002 42.6602 52.7073 42.6602 Z M 51.1346 31.268 V 42.6602 H 49.6245 V 31.268 H 51.1346 Z" stroke-linecap="round"></path></g>		<g transform="matrix(1 0 0 1 -9.71 13.88)"><path style="stroke: none; stroke-width: 1; stroke-dasharray: none; stroke-linecap: butt; stroke-dashoffset: 0; stroke-linejoin: miter; stroke-miterlimit: 4;  fill: white; fill-rule: nonzero; opacity: 1;" transform=" translate(-60.79, -36.89)" d="M 61.4941 34.1943 V 42.6602 H 60.0387 V 34.1943 H 61.4941 Z M 59.9292 31.9487 C 59.9292 31.714 59.9996 31.5158 60.1405 31.3541 C 60.2865 31.1924 60.5004 31.1115 60.7821 31.1115 C 61.0585 31.1115 61.2698 31.1924 61.4158 31.3541 C 61.5671 31.5158 61.6427 31.714 61.6427 31.9487 C 61.6427 32.173 61.5671 32.366 61.4158 32.5277 C 61.2698 32.6842 61.0585 32.7624 60.7821 32.7624 C 60.5004 32.7624 60.2865 32.6842 60.1405 32.5277 C 59.9996 32.366 59.9292 32.173 59.9292 31.9487 Z" stroke-linecap="round"></path></g>		<g transform="matrix(1 0 0 1 -3.46 17.02)"><path style="stroke: none; stroke-width: 1; stroke-dasharray: none; stroke-linecap: butt; stroke-dashoffset: 0; stroke-linejoin: miter; stroke-miterlimit: 4;  fill: white; fill-rule: nonzero; opacity: 1;" transform=" translate(-67.05, -40.02)" d="M 69.3028 34.1943 H 70.6173 V 42.4803 C 70.6173 43.2262 70.466 43.8626 70.1634 44.3894 C 69.8609 44.9163 69.4384 45.3153 68.8959 45.5866 C 68.3586 45.863 67.7379 46.0012 67.0337 46.0012 C 66.7416 46.0012 66.3973 45.9543 66.0009 45.8604 C 65.6097 45.7717 65.2237 45.6178 64.8429 45.3988 C 64.4673 45.1849 64.1517 44.8954 63.8961 44.5303 L 64.6551 43.6696 C 65.0098 44.0973 65.3802 44.3946 65.7662 44.5616 C 66.1574 44.7285 66.5434 44.8119 66.9242 44.8119 C 67.3832 44.8119 67.7796 44.7259 68.1135 44.5537 C 68.4473 44.3816 68.7055 44.126 68.8881 43.7869 C 69.0759 43.4531 69.1698 43.041 69.1698 42.5507 V 36.0565 L 69.3028 34.1943 Z M 63.4736 38.5212 V 38.3568 C 63.4736 37.71 63.5493 37.1232 63.7005 36.5964 C 63.857 36.0643 64.0787 35.6079 64.3656 35.2271 C 64.6577 34.8463 65.0098 34.5542 65.4219 34.3508 C 65.834 34.1421 66.2982 34.0378 66.8146 34.0378 C 67.3467 34.0378 67.8109 34.1317 68.2074 34.3195 C 68.609 34.5021 68.9481 34.7707 69.2245 35.1254 C 69.5062 35.4749 69.7279 35.8974 69.8896 36.3929 C 70.0513 36.8885 70.1634 37.4492 70.226 38.0752 V 38.795 C 70.1687 39.4157 70.0565 39.9739 69.8896 40.4694 C 69.7279 40.965 69.5062 41.3875 69.2245 41.737 C 68.9481 42.0865 68.609 42.3551 68.2074 42.5429 C 67.8057 42.7254 67.3363 42.8167 66.799 42.8167 C 66.293 42.8167 65.834 42.7098 65.4219 42.4959 C 65.015 42.2821 64.6655 41.9821 64.3734 41.5961 C 64.0813 41.2101 63.857 40.7563 63.7005 40.2347 C 63.5493 39.7079 63.4736 39.1367 63.4736 38.5212 Z M 64.9211 38.3568 V 38.5212 C 64.9211 38.9437 64.9629 39.3401 65.0463 39.7105 C 65.135 40.0808 65.268 40.4068 65.4454 40.6885 C 65.6279 40.9702 65.8601 41.1919 66.1417 41.3536 C 66.4234 41.5101 66.7598 41.5883 67.1511 41.5883 C 67.631 41.5883 68.0274 41.4866 68.3404 41.2832 C 68.6534 41.0797 68.9011 40.8111 69.0837 40.4772 C 69.2715 40.1434 69.4175 39.7809 69.5219 39.3897 V 37.504 C 69.4645 37.2171 69.3758 36.9406 69.2558 36.6746 C 69.1411 36.4034 68.9898 36.1634 68.802 35.9548 C 68.6194 35.7409 68.3925 35.5714 68.1213 35.4462 C 67.85 35.321 67.5319 35.2584 67.1667 35.2584 C 66.7703 35.2584 66.4286 35.3419 66.1417 35.5088 C 65.8601 35.6705 65.6279 35.8948 65.4454 36.1817 C 65.268 36.4634 65.135 36.792 65.0463 37.1675 C 64.9629 37.5379 64.9211 37.9343 64.9211 38.3568 Z" stroke-linecap="round"></path></g>		<g transform="matrix(1 0 0 1 3.18 13.88)"><path style="stroke: none; stroke-width: 1; stroke-dasharray: none; stroke-linecap: butt; stroke-dashoffset: 0; stroke-linejoin: miter; stroke-miterlimit: 4;  fill: white; fill-rule: nonzero; opacity: 1;" transform=" translate(-73.68, -36.89)" d="M 74.3886 34.1943 V 42.6602 H 72.9333 V 34.1943 H 74.3886 Z M 72.8237 31.9487 C 72.8237 31.714 72.8941 31.5158 73.035 31.3541 C 73.181 31.1924 73.3949 31.1115 73.6766 31.1115 C 73.953 31.1115 74.1643 31.1924 74.3103 31.3541 C 74.4616 31.5158 74.5373 31.714 74.5373 31.9487 C 74.5373 32.173 74.4616 32.366 74.3103 32.5277 C 74.1643 32.6842 73.953 32.7624 73.6766 32.7624 C 73.3949 32.7624 73.181 32.6842 73.035 32.5277 C 72.8941 32.366 72.8237 32.173 72.8237 31.9487 Z" stroke-linecap="round"></path></g>		<g transform="matrix(1 0 0 1 7.49 14.48)"><path style="stroke: none; stroke-width: 1; stroke-dasharray: none; stroke-linecap: butt; stroke-dashoffset: 0; stroke-linejoin: miter; stroke-miterlimit: 4;  fill: white; fill-rule: nonzero; opacity: 1;" transform=" translate(-77.99, -37.48)" d="M 80.2569 34.1943 V 35.3054 H 75.6796 V 34.1943 H 80.2569 Z M 77.2288 32.1365 H 78.6763 V 40.5633 C 78.6763 40.8502 78.7207 41.0667 78.8093 41.2127 C 78.898 41.3588 79.0128 41.4553 79.1536 41.5022 C 79.2945 41.5492 79.4457 41.5727 79.6074 41.5727 C 79.7274 41.5727 79.8526 41.5622 79.983 41.5414 C 80.1186 41.5153 80.2203 41.4944 80.2881 41.4788 L 80.296 42.6602 C 80.1812 42.6968 80.0299 42.7307 79.8422 42.762 C 79.6596 42.7985 79.4379 42.8167 79.1771 42.8167 C 78.8224 42.8167 78.4964 42.7463 78.1991 42.6055 C 77.9017 42.4646 77.6644 42.2299 77.487 41.9013 C 77.3149 41.5674 77.2288 41.1188 77.2288 40.5555 V 32.1365 Z" stroke-linecap="round"></path></g>		<g transform="matrix(1 0 0 1 14.69 15.43)"><path style="stroke: none; stroke-width: 1; stroke-dasharray: none; stroke-linecap: butt; stroke-dashoffset: 0; stroke-linejoin: miter; stroke-miterlimit: 4;  fill: white; fill-rule: nonzero; opacity: 1;" transform=" translate(-85.2, -38.43)" d="M 86.9467 41.2127 V 36.8546 C 86.9467 36.5207 86.8789 36.2312 86.7432 35.9861 C 86.6128 35.7357 86.4146 35.5427 86.1486 35.4071 C 85.8826 35.2714 85.5539 35.2036 85.1627 35.2036 C 84.7976 35.2036 84.4768 35.2662 84.2003 35.3914 C 83.9291 35.5166 83.7152 35.6809 83.5587 35.8844 C 83.4075 36.0878 83.3318 36.3069 83.3318 36.5416 H 81.8843 C 81.8843 36.2391 81.9626 35.9391 82.119 35.6418 C 82.2755 35.3445 82.4998 35.0758 82.7919 34.8359 C 83.0893 34.5907 83.444 34.3977 83.8561 34.2569 C 84.2734 34.1108 84.7376 34.0378 85.2488 34.0378 C 85.8643 34.0378 86.4068 34.1421 86.8763 34.3508 C 87.3509 34.5594 87.7213 34.875 87.9873 35.2975 C 88.2586 35.7148 88.3942 36.2391 88.3942 36.8702 V 40.8137 C 88.3942 41.0954 88.4176 41.3953 88.4646 41.7135 C 88.5168 42.0317 88.5924 42.3055 88.6915 42.5351 V 42.6602 H 87.1814 C 87.1084 42.4933 87.051 42.2716 87.0093 41.9952 C 86.9675 41.7135 86.9467 41.4527 86.9467 41.2127 Z M 87.197 37.5275 L 87.2127 38.5446 H 85.7495 C 85.3375 38.5446 84.9697 38.5785 84.6463 38.6464 C 84.3229 38.7089 84.0517 38.8054 83.8326 38.9359 C 83.6135 39.0663 83.4466 39.2306 83.3318 39.4288 C 83.2171 39.6218 83.1597 39.8487 83.1597 40.1095 C 83.1597 40.3755 83.2197 40.6181 83.3396 40.8372 C 83.4596 41.0562 83.6396 41.231 83.8795 41.3614 C 84.1247 41.4866 84.4246 41.5492 84.7793 41.5492 C 85.2227 41.5492 85.6139 41.4553 85.953 41.2675 C 86.292 41.0797 86.5607 40.8502 86.7589 40.579 C 86.9623 40.3077 87.0719 40.0443 87.0875 39.7887 L 87.7056 40.4851 C 87.6691 40.7042 87.57 40.9467 87.4083 41.2127 C 87.2466 41.4788 87.0301 41.7344 86.7589 41.9795 C 86.4929 42.2195 86.1747 42.4203 85.8043 42.582 C 85.4392 42.7385 85.0271 42.8167 84.5681 42.8167 C 83.9943 42.8167 83.4909 42.7046 83.058 42.4803 C 82.6302 42.256 82.2964 41.9561 82.0564 41.5805 C 81.8217 41.1997 81.7044 40.7746 81.7044 40.3051 C 81.7044 39.8513 81.793 39.4523 81.9704 39.108 C 82.1477 38.7585 82.4033 38.469 82.7372 38.2395 C 83.071 38.0048 83.4727 37.8274 83.9421 37.7074 C 84.4116 37.5875 84.9358 37.5275 85.5148 37.5275 H 87.197 Z" stroke-linecap="round"></path></g>		<g transform="matrix(1 0 0 1 21.02 13.65)"><path style="stroke: none; stroke-width: 1; stroke-dasharray: none; stroke-linecap: butt; stroke-dashoffset: 0; stroke-linejoin: miter; stroke-miterlimit: 4;  fill: white; fill-rule: nonzero; opacity: 1;" transform=" translate(-91.52, -36.65)" d="M 92.2438 30.642 V 42.6602 H 90.7884 V 30.642 H 92.2438 Z" stroke-linecap="round"></path></g>		<g transform="matrix(1 0 0 1 31.71 13.96)"><path style="stroke: none; stroke-width: 1; stroke-dasharray: none; stroke-linecap: butt; stroke-dashoffset: 0; stroke-linejoin: miter; stroke-miterlimit: 4;  fill: white; fill-rule: nonzero; opacity: 1;" transform=" translate(-102.21, -36.96)" d="M 104.833 39.7809 C 104.833 39.5149 104.791 39.2801 104.708 39.0767 C 104.63 38.868 104.489 38.6803 104.285 38.5133 C 104.087 38.3464 103.811 38.1873 103.456 38.036 C 103.107 37.8848 102.663 37.7309 102.126 37.5744 C 101.563 37.4075 101.054 37.2223 100.6 37.0189 C 100.146 36.8102 99.7577 36.5729 99.4343 36.3069 C 99.1109 36.0408 98.8632 35.7357 98.691 35.3914 C 98.5189 35.0471 98.4328 34.6533 98.4328 34.2099 C 98.4328 33.7666 98.5241 33.3571 98.7067 32.9815 C 98.8892 32.606 99.15 32.2799 99.4891 32.0035 C 99.8334 31.7218 100.243 31.5027 100.718 31.3462 C 101.192 31.1897 101.722 31.1115 102.306 31.1115 C 103.161 31.1115 103.886 31.2758 104.481 31.6044 C 105.081 31.9278 105.537 32.353 105.85 32.8798 C 106.163 33.4014 106.32 33.9596 106.32 34.5542 H 104.817 C 104.817 34.1265 104.726 33.7483 104.544 33.4197 C 104.361 33.0858 104.085 32.825 103.714 32.6372 C 103.344 32.4443 102.874 32.3477 102.306 32.3477 C 101.769 32.3477 101.325 32.4286 100.976 32.5903 C 100.626 32.752 100.365 32.9711 100.193 33.2475 C 100.026 33.524 99.9429 33.8396 99.9429 34.1943 C 99.9429 34.4342 99.9925 34.6533 100.092 34.8515 C 100.196 35.0445 100.355 35.2245 100.569 35.3914 C 100.788 35.5583 101.064 35.7122 101.398 35.8531 C 101.737 35.9939 102.142 36.1295 102.611 36.2599 C 103.258 36.4425 103.816 36.6459 104.285 36.8702 C 104.755 37.0945 105.141 37.3475 105.443 37.6292 C 105.751 37.9056 105.978 38.2212 106.124 38.5759 C 106.275 38.9254 106.351 39.3219 106.351 39.7652 C 106.351 40.2295 106.257 40.6494 106.069 41.025 C 105.882 41.4005 105.613 41.7213 105.263 41.9873 C 104.914 42.2534 104.494 42.4594 104.004 42.6055 C 103.519 42.7463 102.976 42.8167 102.376 42.8167 C 101.849 42.8167 101.33 42.7437 100.819 42.5976 C 100.313 42.4516 99.8516 42.2325 99.4343 41.9404 C 99.0223 41.6483 98.691 41.2884 98.4406 40.8606 C 98.1955 40.4277 98.0729 39.9269 98.0729 39.3584 H 99.5752 C 99.5752 39.7496 99.6508 40.086 99.8021 40.3677 C 99.9533 40.6442 100.159 40.8737 100.42 41.0562 C 100.686 41.2388 100.986 41.3744 101.32 41.4631 C 101.659 41.5466 102.011 41.5883 102.376 41.5883 C 102.903 41.5883 103.349 41.5153 103.714 41.3692 C 104.079 41.2232 104.356 41.0145 104.544 40.7433 C 104.737 40.472 104.833 40.1512 104.833 39.7809 Z" stroke-linecap="round"></path></g>		<g transform="matrix(1 0 0 1 40.89 13.65)"><path style="stroke: none; stroke-width: 1; stroke-dasharray: none; stroke-linecap: butt; stroke-dashoffset: 0; stroke-linejoin: miter; stroke-miterlimit: 4;  fill: white; fill-rule: nonzero; opacity: 1;" transform=" translate(-111.39, -36.65)" d="M 109.504 30.642 V 42.6602 H 108.057 V 30.642 H 109.504 Z M 109.16 38.1065 L 108.558 38.083 C 108.563 37.504 108.649 36.9693 108.816 36.479 C 108.983 35.9835 109.217 35.5531 109.52 35.188 C 109.822 34.8229 110.182 34.5412 110.6 34.343 C 111.022 34.1395 111.489 34.0378 112 34.0378 C 112.418 34.0378 112.793 34.0952 113.127 34.2099 C 113.461 34.3195 113.745 34.4968 113.98 34.742 C 114.22 34.9872 114.402 35.3054 114.528 35.6966 C 114.653 36.0826 114.715 36.5546 114.715 37.1128 V 42.6602 H 113.26 V 37.0971 C 113.26 36.6538 113.195 36.299 113.064 36.033 C 112.934 35.7618 112.744 35.5662 112.493 35.4462 C 112.243 35.321 111.935 35.2584 111.57 35.2584 C 111.21 35.2584 110.881 35.334 110.584 35.4853 C 110.292 35.6366 110.039 35.8452 109.825 36.1113 C 109.616 36.3773 109.452 36.6824 109.332 37.0267 C 109.217 37.3658 109.16 37.7257 109.16 38.1065 Z" stroke-linecap="round"></path></g>		<g transform="matrix(1 0 0 1 47.25 13.88)"><path style="stroke: none; stroke-width: 1; stroke-dasharray: none; stroke-linecap: butt; stroke-dashoffset: 0; stroke-linejoin: miter; stroke-miterlimit: 4;  fill: white; fill-rule: nonzero; opacity: 1;" transform=" translate(-117.75, -36.89)" d="M 118.455 34.1943 V 42.6602 H 117 V 34.1943 H 118.455 Z M 116.89 31.9487 C 116.89 31.714 116.961 31.5158 117.102 31.3541 C 117.248 31.1924 117.462 31.1115 117.743 31.1115 C 118.02 31.1115 118.231 31.1924 118.377 31.3541 C 118.528 31.5158 118.604 31.714 118.604 31.9487 C 118.604 32.173 118.528 32.366 118.377 32.5277 C 118.231 32.6842 118.02 32.7624 117.743 32.7624 C 117.462 32.7624 117.248 32.6842 117.102 32.5277 C 116.961 32.366 116.89 32.173 116.89 31.9487 Z" stroke-linecap="round"></path></g>		<g transform="matrix(1 0 0 1 53.49 15.43)"><path style="stroke: none; stroke-width: 1; stroke-dasharray: none; stroke-linecap: butt; stroke-dashoffset: 0; stroke-linejoin: miter; stroke-miterlimit: 4;  fill: white; fill-rule: nonzero; opacity: 1;" transform=" translate(-124, -38.43)" d="M 124.292 42.8167 C 123.703 42.8167 123.168 42.7176 122.688 42.5194 C 122.214 42.316 121.804 42.0317 121.46 41.6666 C 121.121 41.3014 120.86 40.8685 120.677 40.3677 C 120.495 39.8669 120.404 39.3192 120.404 38.7246 V 38.396 C 120.404 37.7074 120.505 37.0945 120.709 36.5572 C 120.912 36.0148 121.189 35.5557 121.538 35.1802 C 121.888 34.8046 122.284 34.5203 122.727 34.3273 C 123.171 34.1343 123.63 34.0378 124.104 34.0378 C 124.71 34.0378 125.231 34.1421 125.669 34.3508 C 126.113 34.5594 126.475 34.8515 126.757 35.2271 C 127.039 35.5975 127.247 36.0356 127.383 36.5416 C 127.519 37.0424 127.586 37.5901 127.586 38.1847 V 38.8341 H 121.264 V 37.6527 H 126.139 V 37.5431 C 126.118 37.1675 126.04 36.8024 125.904 36.4477 C 125.774 36.093 125.565 35.8009 125.278 35.5714 C 124.991 35.3419 124.6 35.2271 124.104 35.2271 C 123.776 35.2271 123.473 35.2975 123.197 35.4384 C 122.92 35.574 122.683 35.7774 122.485 36.0487 C 122.287 36.3199 122.133 36.6511 122.023 37.0424 C 121.914 37.4336 121.859 37.8848 121.859 38.396 V 38.7246 C 121.859 39.1262 121.914 39.5044 122.023 39.8591 C 122.138 40.2086 122.302 40.5164 122.516 40.7824 C 122.735 41.0484 122.999 41.2571 123.306 41.4083 C 123.619 41.5596 123.974 41.6352 124.371 41.6352 C 124.882 41.6352 125.315 41.5309 125.669 41.3223 C 126.024 41.1136 126.334 40.8346 126.6 40.4851 L 127.477 41.1814 C 127.294 41.4579 127.062 41.7213 126.78 41.9717 C 126.499 42.2221 126.152 42.4255 125.74 42.582 C 125.333 42.7385 124.85 42.8167 124.292 42.8167 Z" stroke-linecap="round"></path></g>		<g transform="matrix(1 0 0 1 59.62 13.65)"><path style="stroke: none; stroke-width: 1; stroke-dasharray: none; stroke-linecap: butt; stroke-dashoffset: 0; stroke-linejoin: miter; stroke-miterlimit: 4;  fill: white; fill-rule: nonzero; opacity: 1;" transform=" translate(-130.12, -36.65)" d="M 130.849 30.642 V 42.6602 H 129.394 V 30.642 H 130.849 Z" stroke-linecap="round"></path></g>		<g transform="matrix(1 0 0 1 65.89 13.73)"><path style="stroke: none; stroke-width: 1; stroke-dasharray: none; stroke-linecap: butt; stroke-dashoffset: 0; stroke-linejoin: miter; stroke-miterlimit: 4;  fill: white; fill-rule: nonzero; opacity: 1;" transform=" translate(-136.39, -36.73)" d="M 138.509 41.0171 V 30.642 H 139.964 V 42.6602 H 138.634 L 138.509 41.0171 Z M 132.813 38.5212 V 38.3568 C 132.813 37.71 132.891 37.1232 133.048 36.5964 C 133.209 36.0643 133.436 35.6079 133.728 35.2271 C 134.026 34.8463 134.378 34.5542 134.785 34.3508 C 135.197 34.1421 135.656 34.0378 136.162 34.0378 C 136.694 34.0378 137.158 34.1317 137.555 34.3195 C 137.956 34.5021 138.295 34.7707 138.572 35.1254 C 138.853 35.4749 139.075 35.8974 139.237 36.3929 C 139.398 36.8885 139.511 37.4492 139.573 38.0752 V 38.795 C 139.516 39.4157 139.404 39.9739 139.237 40.4694 C 139.075 40.965 138.853 41.3875 138.572 41.737 C 138.295 42.0865 137.956 42.3551 137.555 42.5429 C 137.153 42.7254 136.683 42.8167 136.146 42.8167 C 135.651 42.8167 135.197 42.7098 134.785 42.4959 C 134.378 42.2821 134.026 41.9821 133.728 41.5961 C 133.436 41.2101 133.209 40.7563 133.048 40.2347 C 132.891 39.7079 132.813 39.1367 132.813 38.5212 Z M 134.268 38.3568 V 38.5212 C 134.268 38.9437 134.31 39.3401 134.394 39.7105 C 134.482 40.0808 134.618 40.4068 134.8 40.6885 C 134.983 40.9702 135.215 41.1919 135.497 41.3536 C 135.778 41.5101 136.115 41.5883 136.506 41.5883 C 136.986 41.5883 137.38 41.4866 137.688 41.2832 C 138.001 41.0797 138.251 40.8111 138.439 40.4772 C 138.626 40.1434 138.773 39.7809 138.877 39.3897 V 37.504 C 138.814 37.2171 138.723 36.9406 138.603 36.6746 C 138.488 36.4034 138.337 36.1634 138.149 35.9548 C 137.967 35.7409 137.74 35.5714 137.468 35.4462 C 137.202 35.321 136.887 35.2584 136.522 35.2584 C 136.125 35.2584 135.784 35.3419 135.497 35.5088 C 135.215 35.6705 134.983 35.8948 134.8 36.1817 C 134.618 36.4634 134.482 36.792 134.394 37.1675 C 134.31 37.5379 134.268 37.9343 134.268 38.3568 Z" stroke-linecap="round"></path></g></g></g><g transform="matrix(3.3 0 0 3.76 375 150.34)"><path style="stroke: none; stroke-width: 1; stroke-dasharray: none; stroke-linecap: butt; stroke-dashoffset: 0; stroke-linejoin: miter; stroke-miterlimit: 4;  fill: white; fill-rule: nonzero; opacity: 1;" transform=" translate(-6.87, -5.51)" d="M 6.86719 0 L 8.31579 4.20786 L 13.0035 4.20786 L 9.21107 6.80846 L 10.6597 11.0163 L 6.86719 8.41571 L 3.07471 11.0163 L 4.52331 6.80846 L 0.73083 4.20786 H 5.41859 L 6.86719 0 Z" stroke-linecap="round"></path></g></svg>