<svg version="1.1" viewBox="0.0 0.0 960.0 720.0" fill="none" stroke="none" stroke-linecap="square" stroke-miterlimit="10" xmlns:xlink="http://www.w3.org/1999/xlink" xmlns="http://www.w3.org/2000/svg"><clipPath id="p.0"><path d="m0 0l960.0 0l0 720.0l-960.0 0l0 -720.0z" clip-rule="nonzero"/></clipPath><g clip-path="url(#p.0)"><path fill="#000000" fill-opacity="0.0" d="m0 0l960.0 0l0 720.0l-960.0 0z" fill-rule="evenodd"/><path fill="#000000" fill-opacity="0.0" d="m29.055119 153.79002l901.8898 0l0 358.48816l-901.8898 0z" fill-rule="evenodd"/><path fill="#000000" d="m280.05405 259.1919l-33.40625 0l-7.0 20.078125l-15.578125 0l32.59375 -86.249985l13.4375 0l32.640625 86.249985l-15.640625 0l-7.046875 -20.078125zm-29.203125 -12.093735l25.0 0l-12.5 -35.78125l-12.5 35.78125zm70.96594 -31.921875l0.421875 6.6875q6.75 -7.875 18.484375 -7.875q12.859375 0 17.59375 9.828125q6.984375 -9.828125 19.671875 -9.828125q10.59375 0 15.78125 5.859375q5.1875 5.859375 5.3125 17.296875l0 42.124985l-14.40625 0l0 -41.70311q0 -6.109375 -2.671875 -8.953125q-2.65625 -2.84375 -8.8125 -2.84375q-4.921875 0 -8.03125 2.640625q-3.109375 2.640625 -4.359375 6.90625l0.0625 43.95311l-14.390625 0l0 -42.187485q-0.296875 -11.3125 -11.5625 -11.3125q-8.640625 0 -12.265625 7.046875l0 46.45311l-14.390625 0l0 -64.093735l13.5625 0zm120.2728 65.281235q-13.6875 0 -22.1875 -8.609375q-8.5 -8.625 -8.5 -22.968735l0 -1.78125q0 -9.59375 3.703125 -17.140625q3.703125 -7.5625 10.390625 -11.765625q6.703125 -4.203125 14.9375 -4.203125q13.078125 0 20.21875 8.359375q7.140625 8.34375 7.140625 23.625l0 5.8125l-41.875 0q0.640625 7.9374847 5.296875 12.562485q4.65625 4.609375 11.703125 4.609375q9.890625 0 16.109375 -8.0l7.765625 7.40625q-3.859375 5.75 -10.28125 8.921875q-6.421875 3.171875 -14.421875 3.171875zm-1.71875 -54.92186q-5.921875 0 -9.578125 4.15625q-3.640625 4.140625 -4.640625 11.546875l27.421875 0l0 -1.0625q-0.46875 -7.234375 -3.84375 -10.9375q-3.375 -3.703125 -9.359375 -3.703125zm72.15411 2.78125q-2.84375 -0.46875 -5.859375 -0.46875q-9.90625 0 -13.34375 7.578125l0 43.843735l-14.390625 0l0 -64.093735l13.75 0l0.359375 7.15625q5.203125 -8.34375 14.453125 -8.34375q3.078125 0 5.09375 0.828125l-0.0625 13.5zm24.40448 50.95311l-14.390625 0l0 -64.093735l14.390625 0l0 64.093735zm-15.28125 -80.749985q0 -3.3125 2.09375 -5.5q2.109375 -2.203125 6.015625 -2.203125q3.921875 0 6.046875 2.203125q2.140625 2.1875 2.140625 5.5q0 3.265625 -2.140625 5.421875q-2.125 2.15625 -6.046875 2.15625q-3.90625 0 -6.015625 -2.15625q-2.09375 -2.15625 -2.09375 -5.421875zm57.280518 70.437485q5.390625 0 8.9375 -3.140625q3.5625 -3.140625 3.8125 -7.75l13.5625 0q-0.234375 5.984375 -3.734375 11.171875q-3.5 5.171875 -9.484375 8.203125q-5.984375 3.015625 -12.90625 3.015625q-13.453125 0 -21.328125 -8.703125q-7.875 -8.71875 -7.875 -24.062485l0 -1.484375q0 -14.625 7.8125 -23.421875q7.8125 -8.796875 21.328125 -8.796875q11.4375 0 18.625 6.671875q7.203125 6.65625 7.5625 17.5l-13.5625 0q-0.25 -5.515625 -3.78125 -9.0625q-3.515625 -3.5625 -8.96875 -3.5625q-6.984375 0 -10.78125 5.0625q-3.78125 5.0625 -3.84375 15.375l0 2.3125q0 10.42186 3.75 15.54686q3.765625 5.125 10.875 5.125zm75.47644 10.3125q-0.9375 -1.84375 -1.65625 -5.984375q-6.875 7.171875 -16.828125 7.171875q-9.65625 0 -15.765625 -5.5q-6.09375 -5.515625 -6.09375 -13.640625q0 -10.249985 7.609375 -15.718735q7.625 -5.484375 21.78125 -5.484375l8.828125 0l0 -4.203125q0 -4.984375 -2.796875 -7.96875q-2.78125 -3.0 -8.46875 -3.0q-4.90625 0 -8.046875 2.46875q-3.140625 2.453125 -3.140625 6.25l-14.40625 0q0 -5.28125 3.5 -9.875q3.5 -4.59375 9.515625 -7.1875q6.015625 -2.609375 13.40625 -2.609375q11.265625 0 17.953125 5.65625q6.703125 5.65625 6.875 15.90625l0 28.906235q0 8.65625 2.4375 13.8125l0 1.0l-14.703125 0zm-15.8125 -10.375q4.265625 0 8.015625 -2.0625q3.765625 -2.078125 5.671875 -5.578125l0 -12.07811l-7.765625 0q-8.0 0 -12.03125 2.78125q-4.015625 2.78125 -4.015625 7.8749847q0 4.15625 2.75 6.609375q2.75 2.453125 7.375 2.453125zm79.09357 -7.046875q0 -3.84375 -3.171875 -5.8593597q-3.171875 -2.015625 -10.515625 -3.546875q-7.34375 -1.546875 -12.265625 -3.921875q-10.78125 -5.203125 -10.78125 -15.109375q0 -8.28125 6.984375 -13.84375q7.0 -5.578125 17.78125 -5.578125q11.484375 0 18.5625 5.6875q7.078125 5.6875 7.078125 14.75l-14.390625 0q0 -4.15625 -3.078125 -6.90625q-3.078125 -2.75 -8.171875 -2.75q-4.75 0 -7.75 2.1875q-2.984375 2.1875 -2.984375 5.859375q0 3.328125 2.78125 5.171875q2.796875 1.828125 11.265625 3.703125q8.46875 1.859375 13.296875 4.4375q4.828125 2.578125 7.171875 6.1875q2.34375 3.609375 2.34375 8.76561q0 8.65625 -7.171875 14.015625q-7.171875 5.359375 -18.78125 5.359375q-7.875 0 -14.046875 -2.84375q-6.15625 -2.84375 -9.59375 -7.8125q-3.4375 -4.984375 -3.4375 -10.734375l13.984375 0q0.296875 5.09375 3.84375 7.859375q3.5625 2.75 9.421875 2.75q5.6875 0 8.65625 -2.15625q2.96875 -2.171875 2.96875 -5.671875z" fill-rule="nonzero"/><path fill="#000000" d="m132.09766 424.87003l0 -86.25l25.46875 0q11.4375 0 20.296875 5.09375q8.859375 5.09375 13.71875 14.453125q4.859375 9.359375 4.859375 21.4375l0 4.328125q0 12.265625 -4.890625 21.5625q-4.890625 9.296875 -13.921875 14.34375q-9.03125 5.03125 -20.703125 5.03125l-24.828125 0zm14.984375 -74.171875l0 62.203125l9.78125 0q11.796875 0 18.09375 -7.375q6.3125 -7.375 6.4375 -21.171875l0 -4.8125q0 -14.03125 -6.109375 -21.4375q-6.09375 -7.40625 -17.71875 -7.40625l-10.484375 0zm78.20363 74.171875l-14.390625 0l0 -64.09375l14.390625 0l0 64.09375zm-15.28125 -80.75q0 -3.3125 2.09375 -5.5q2.109375 -2.203125 6.015625 -2.203125q3.921875 0 6.046875 2.203125q2.140625 2.1875 2.140625 5.5q0 3.265625 -2.140625 5.421875q-2.125 2.15625 -6.046875 2.15625q-3.90625 0 -6.015625 -2.15625q-2.09375 -2.15625 -2.09375 -5.421875zm28.436829 48.21875q0 -14.921875 7.015625 -23.828125q7.015625 -8.921875 18.64064 -8.921875q10.953125 0 17.234375 7.640625l0.65625 -6.453125l12.9687195 0l0 62.140625q0 12.609375 -7.859375 19.890625q-7.8437195 7.296875 -21.171844 7.296875q-7.046875 0 -13.781265 -2.9375q-6.71875 -2.921875 -10.203125 -7.65625l6.8125 -8.65625q6.625 7.875 16.343765 7.875q7.171875 0 11.3125 -3.875q4.15625 -3.875 4.15625 -11.40625l0 -4.328125q-6.21875 6.9375 -16.59375 6.9375q-11.250015 0 -18.39064 -8.9375q-7.140625 -8.953125 -7.140625 -24.78125zm14.328125 1.25q0 9.65625 3.9375153 15.203125q3.953125 5.53125 10.9375 5.53125q8.703125 0 12.921875 -7.46875l0 -28.1875q-4.09375 -7.296875 -12.796875 -7.296875q-7.109375 0 -11.0625 5.640625q-3.9375153 5.625 -3.9375153 16.578125zm72.28026 31.28125l-14.390625 0l0 -64.09375l14.390625 0l0 64.09375zm-15.28125 -80.75q0 -3.3125 2.09375 -5.5q2.109375 -2.203125 6.015625 -2.203125q3.921875 0 6.046875 2.203125q2.140625 2.1875 2.140625 5.5q0 3.265625 -2.140625 5.421875q-2.125 2.15625 -6.046875 2.15625q-3.90625 0 -6.015625 -2.15625q-2.09375 -2.15625 -2.09375 -5.421875zm48.99933 1.0625l0 15.59375l11.3125 0l0 10.65625l-11.3125 0l0 35.78125q0 3.671875 1.4375 5.3125q1.453125 1.625 5.1875 1.625q2.484375 0 5.03125 -0.59375l0 11.140625q-4.90625 1.359375 -9.46875 1.359375q-16.59375 0 -16.59375 -18.3125l0 -36.3125l-10.546875 0l0 -10.65625l10.546875 0l0 -15.59375l14.40625 0zm60.593994 79.6875q-0.9375 -1.84375 -1.65625 -5.984375q-6.875 7.171875 -16.828125 7.171875q-9.65625 0 -15.765625 -5.5q-6.09375 -5.515625 -6.09375 -13.640625q0 -10.25 7.609375 -15.71875q7.625 -5.484375 21.78125 -5.484375l8.828125 0l0 -4.203125q0 -4.984375 -2.796875 -7.96875q-2.78125 -3.0 -8.46875 -3.0q-4.90625 0 -8.046875 2.46875q-3.140625 2.453125 -3.140625 6.25l-14.40625 0q0 -5.28125 3.5 -9.875q3.5 -4.59375 9.515625 -7.1875q6.015625 -2.609375 13.40625 -2.609375q11.265625 0 17.953125 5.65625q6.703125 5.65625 6.875 15.90625l0 28.90625q0 8.65625 2.4375 13.8125l0 1.0l-14.703125 0zm-15.8125 -10.375q4.265625 0 8.015625 -2.0625q3.765625 -2.078125 5.671875 -5.578125l0 -12.078125l-7.765625 0q-8.0 0 -12.03125 2.78125q-4.015625 2.78125 -4.015625 7.875q0 4.15625 2.75 6.609375q2.75 2.453125 7.375 2.453125zm58.468506 10.375l-14.390625 0l0 -91.0l14.390625 0l0 91.0zm92.353516 -22.21875q0 -5.6875 -4.0 -8.765625q-3.984375 -3.078125 -14.421875 -6.21875q-10.421875 -3.140625 -16.578125 -6.984375q-11.796875 -7.40625 -11.796875 -19.3125q0 -10.4375 8.5 -17.1875q8.5 -6.75 22.078125 -6.75q9.0 0 16.046875 3.3125q7.046875 3.3125 11.078125 9.453125q4.03125 6.125 4.03125 13.59375l-14.9375 0q0 -6.75 -4.234375 -10.5625q-4.234375 -3.828125 -12.109375 -3.828125q-7.34375 0 -11.40625 3.140625q-4.0625 3.140625 -4.0625 8.765625q0 4.734375 4.390625 7.90625q4.390625 3.171875 14.453125 6.171875q10.078125 2.984375 16.171875 6.8125q6.109375 3.8125 8.953125 8.765625q2.84375 4.9375 2.84375 11.578125q0 10.78125 -8.265625 17.15625q-8.265625 6.359375 -22.421875 6.359375q-9.359375 0 -17.21875 -3.46875q-7.84375 -3.46875 -12.203125 -9.5625q-4.34375 -6.109375 -4.34375 -14.21875l14.984375 0q0 7.34375 4.859375 11.375q4.859375 4.03125 13.921875 4.03125q7.8125 0 11.75 -3.171875q3.9375 -3.171875 3.9375 -8.390625zm40.9422 -34.890625q7.046875 -8.171875 17.828125 -8.171875q20.5 0 20.796875 23.390625l0 41.890625l-14.390625 0l0 -41.34375q0 -6.640625 -2.875 -9.390625q-2.875 -2.765625 -8.4375 -2.765625q-8.65625 0 -12.921875 7.703125l0 45.796875l-14.390625 0l0 -91.0l14.390625 0l0 33.890625zm68.4834 57.109375l-14.390625 0l0 -64.09375l14.390625 0l0 64.09375zm-15.28125 -80.75q0 -3.3125 2.09375 -5.5q2.109375 -2.203125 6.015625 -2.203125q3.921875 0 6.046875 2.203125q2.140625 2.1875 2.140625 5.5q0 3.265625 -2.140625 5.421875q-2.125 2.15625 -6.046875 2.15625q-3.90625 0 -6.015625 -2.15625q-2.09375 -2.15625 -2.09375 -5.421875zm59.18683 81.9375q-13.6875 0 -22.1875 -8.609375q-8.5 -8.625 -8.5 -22.96875l0 -1.78125q0 -9.59375 3.703125 -17.140625q3.703125 -7.5625 10.390625 -11.765625q6.703125 -4.203125 14.9375 -4.203125q13.078125 0 20.21875 8.359375q7.140625 8.34375 7.140625 23.625l0 5.8125l-41.875 0q0.640625 7.9375 5.296875 12.5625q4.65625 4.609375 11.703125 4.609375q9.890625 0 16.109375 -8.0l7.765625 7.40625q-3.859375 5.75 -10.28125 8.921875q-6.421875 3.171875 -14.421875 3.171875zm-1.71875 -54.921875q-5.921875 0 -9.578125 4.15625q-3.640625 4.140625 -4.640625 11.546875l27.421875 0l0 -1.0625q-0.46875 -7.234375 -3.84375 -10.9375q-3.375 -3.703125 -9.359375 -3.703125zm53.904114 53.734375l-14.390625 0l0 -91.0l14.390625 0l0 91.0zm12.983704 -32.53125q0 -14.796875 6.859375 -23.765625q6.875 -8.984375 18.4375 -8.984375q10.1875 0 16.46875 7.109375l0 -32.828125l14.390625 0l0 91.0l-13.03125 0l-0.71875 -6.640625q-6.453125 7.828125 -17.234375 7.828125q-11.25 0 -18.21875 -9.0625q-6.953125 -9.0625 -6.953125 -24.65625zm14.390625 1.25q0 9.78125 3.75 15.265625q3.765625 5.46875 10.703125 5.46875q8.828125 0 12.921875 -7.875l0 -27.375q-3.96875 -7.703125 -12.796875 -7.703125q-7.0 0 -10.796875 5.546875q-3.78125 5.53125 -3.78125 16.671875z" fill-rule="nonzero"/></g></svg>