<svg version="1.1" viewBox="0.0 0.0 960.0 720.0" fill="none" stroke="none" stroke-linecap="square" stroke-miterlimit="10" xmlns:xlink="http://www.w3.org/1999/xlink" xmlns="http://www.w3.org/2000/svg"><clipPath id="p.0"><path d="m0 0l960.0 0l0 720.0l-960.0 0l0 -720.0z" clip-rule="nonzero"/></clipPath><g clip-path="url(#p.0)"><path fill="#000000" fill-opacity="0.0" d="m0 0l960.0 0l0 720.0l-960.0 0z" fill-rule="evenodd"/><path fill="#000000" fill-opacity="0.0" d="m29.055119 153.79002l901.8898 0l0 358.48816l-901.8898 0z" fill-rule="evenodd"/><path fill="#000000" d="m219.93326 270.31003l30.796875 -78.40625l15.015625 0l30.578125 78.40625l-17.25 0l-15.796875 -42.21875q-0.671875 -1.796875 -1.625 -4.59375q-0.953125 -2.796875 -1.96875 -5.9375q-1.0 -3.140625 -1.890625 -5.984375q-0.890625 -2.859375 -1.34375 -4.765625l3.015625 0q-0.671875 2.453125 -1.515625 5.203125q-0.828125 2.75 -1.734375 5.609375q-0.890625 2.84375 -1.90625 5.53125q-1.0 2.6875 -1.890625 5.265625l-15.796875 41.890625l-16.6875 0zm14.34375 -16.46875l5.484375 -13.4375l35.953125 0l5.59375 13.4375l-47.03125 0zm70.670746 16.46875l0 -59.25l15.34375 0l0.328125 11.3125l-2.34375 0.453125q1.234375 -2.921875 3.296875 -5.265625q2.078125 -2.359375 4.765625 -4.03125q2.6875 -1.6875 5.703125 -2.640625q3.03125 -0.953125 6.046875 -0.953125q4.59375 0 8.28125 1.46875q3.703125 1.453125 6.28125 4.53125q2.578125 3.078125 4.03125 8.125l-2.453125 -0.234375l0.78125 -1.78125q1.453125 -2.6875 3.6875 -4.921875q2.25 -2.25 5.046875 -3.8125q2.796875 -1.578125 5.8125 -2.46875q3.03125 -0.90625 5.953125 -0.90625q6.9375 0 11.53125 2.75q4.59375 2.75 6.890625 8.234375q2.296875 5.484375 2.296875 13.4375l0 35.953125l-15.90625 0l0 -34.828125q0 -4.03125 -1.125 -6.609375q-1.125 -2.578125 -3.25 -3.859375q-2.125 -1.296875 -5.484375 -1.296875q-2.578125 0 -4.765625 0.84375q-2.171875 0.84375 -3.796875 2.359375q-1.625 1.5 -2.53125 3.578125q-0.890625 2.0625 -0.890625 4.421875l0 35.390625l-16.015625 0l0 -34.9375q0 -3.703125 -1.125 -6.328125q-1.109375 -2.640625 -3.25 -3.984375q-2.125 -1.34375 -5.25 -1.34375q-2.578125 0 -4.765625 0.84375q-2.1875 0.84375 -3.765625 2.359375q-1.5625 1.5 -2.453125 3.515625q-0.890625 2.015625 -0.890625 4.375l0 35.5l-16.015625 0zm134.50674 1.125q-9.625 0 -16.859375 -3.921875q-7.21875 -3.921875 -11.203125 -10.75q-3.96875 -6.84375 -3.96875 -15.6875q0 -6.9375 2.234375 -12.640625q2.25 -5.71875 6.28125 -9.921875q4.03125 -4.203125 9.5625 -6.5q5.546875 -2.296875 12.046875 -2.296875q6.046875 0 11.203125 2.25q5.15625 2.234375 8.90625 6.21875q3.75 3.96875 5.765625 9.40625q2.015625 5.421875 1.796875 11.6875l-0.109375 4.9375l-47.609375 0l-2.578125 -9.75l37.078125 0l-1.796875 2.015625l0 -2.453125q-0.21875 -3.03125 -1.953125 -5.4375q-1.734375 -2.40625 -4.421875 -3.796875q-2.6875 -1.40625 -6.046875 -1.40625q-4.9375 0 -8.359375 1.90625q-3.40625 1.890625 -5.203125 5.59375q-1.78125 3.6875 -1.78125 8.953125q0 5.375 2.28125 9.296875q2.296875 3.921875 6.5 6.109375q4.203125 2.1875 9.921875 2.1875q3.90625 0 7.15625 -1.234375q3.25 -1.234375 6.953125 -4.265625l7.609375 10.640625q-3.25 2.921875 -7.171875 4.890625q-3.90625 1.953125 -8.0625 2.953125q-4.140625 1.015625 -8.171875 1.015625zm37.522614 -1.125l0 -59.25l15.34375 0l0.5625 19.046875l-2.6875 -3.921875q1.34375 -4.59375 4.359375 -8.34375q3.03125 -3.75 7.109375 -5.875q4.09375 -2.140625 8.578125 -2.140625q1.90625 0 3.6875 0.34375q1.796875 0.328125 3.03125 0.78125l-4.25 17.46875q-1.234375 -0.671875 -3.203125 -1.171875q-1.953125 -0.5 -3.96875 -0.5q-2.6875 0 -4.984375 0.953125q-2.296875 0.953125 -3.984375 2.6875q-1.671875 1.734375 -2.625 4.09375q-0.953125 2.34375 -0.953125 5.140625l0 30.6875l-16.015625 0zm50.39978 0l0 -59.25l15.90625 0l0 59.25l-15.90625 0zm7.84375 -71.34375q-4.59375 0 -7.171875 -2.296875q-2.578125 -2.296875 -2.578125 -6.4375q0 -3.8125 2.625 -6.21875q2.640625 -2.40625 7.125 -2.40625q4.59375 0 7.15625 2.296875q2.578125 2.296875 2.578125 6.328125q0 3.8125 -2.640625 6.28125q-2.625 2.453125 -7.09375 2.453125zm50.850098 72.46875q-8.515625 0 -15.234375 -4.03125q-6.71875 -4.03125 -10.59375 -10.96875q-3.859375 -6.953125 -3.859375 -15.8125q0 -8.84375 3.859375 -15.78125q3.875 -6.953125 10.59375 -10.984375q6.71875 -4.03125 15.234375 -4.03125q7.9375 0 14.546875 2.921875q6.609375 2.90625 10.3125 8.0625l-8.734375 10.53125q-1.578125 -2.140625 -3.9375 -3.875q-2.34375 -1.734375 -5.09375 -2.734375q-2.734375 -1.015625 -5.640625 -1.015625q-4.59375 0 -8.125 2.1875q-3.53125 2.1875 -5.546875 6.0q-2.015625 3.796875 -2.015625 8.71875q0 4.71875 2.0625 8.53125q2.078125 3.796875 5.65625 6.046875q3.59375 2.234375 8.078125 2.234375q2.90625 0 5.484375 -0.78125q2.578125 -0.796875 4.875 -2.46875q2.296875 -1.6875 4.203125 -4.03125l8.625 10.53125q-3.703125 4.8125 -10.484375 7.78125q-6.765625 2.96875 -14.265625 2.96875zm57.11023 0q-7.390625 0 -13.328125 -4.03125q-5.9375 -4.03125 -9.40625 -10.96875q-3.46875 -6.953125 -3.46875 -15.921875q0 -8.953125 3.515625 -15.890625q3.53125 -6.953125 9.578125 -10.875q6.0625 -3.921875 13.78125 -3.921875q4.375 0 8.015625 1.296875q3.640625 1.28125 6.375 3.53125q2.75 2.234375 4.65625 5.15625q1.90625 2.90625 2.6875 6.265625l-3.359375 -0.5625l0 -14.453125l15.78125 0l0 59.25l-16.015625 0l0 -14.21875l3.59375 -0.34375q-0.90625 3.140625 -2.921875 5.9375q-2.015625 2.796875 -4.984375 4.984375q-2.96875 2.1875 -6.671875 3.484375q-3.6875 1.28125 -7.828125 1.28125zm4.375 -13.78125q4.46875 0 7.828125 -2.125q3.375 -2.125 5.21875 -5.984375q1.84375 -3.875 1.84375 -9.03125q0 -5.03125 -1.84375 -8.84375q-1.84375 -3.8125 -5.21875 -5.984375q-3.359375 -2.1875 -7.828125 -2.1875q-4.375 0 -7.6875 2.1875q-3.296875 2.171875 -5.203125 5.984375q-1.890625 3.8125 -1.890625 8.84375q0 5.15625 1.890625 9.03125q1.90625 3.859375 5.203125 5.984375q3.3125 2.125 7.6875 2.125zm66.30261 13.78125q-8.296875 0 -14.734375 -2.75q-6.4375 -2.75 -10.359375 -7.5625l9.96875 -8.515625q3.359375 3.703125 7.609375 5.328125q4.265625 1.625 8.515625 1.625q1.6875 0 3.078125 -0.390625q1.40625 -0.390625 2.40625 -1.109375q1.015625 -0.734375 1.515625 -1.796875q0.515625 -1.078125 0.515625 -2.3125q0 -2.453125 -2.015625 -3.796875q-1.125 -0.671875 -3.484375 -1.515625q-2.34375 -0.84375 -6.046875 -1.84375q-5.703125 -1.453125 -9.6875 -3.40625q-3.96875 -1.96875 -6.328125 -4.4375q-2.015625 -2.359375 -3.078125 -5.09375q-1.0625 -2.75 -1.0625 -6.109375q0 -4.03125 1.78125 -7.328125q1.796875 -3.3125 4.984375 -5.65625q3.203125 -2.359375 7.34375 -3.640625q4.140625 -1.296875 8.734375 -1.296875q4.59375 0 8.953125 1.125q4.375 1.125 8.125 3.203125q3.765625 2.0625 6.5625 4.859375l-8.515625 9.40625q-2.015625 -1.90625 -4.546875 -3.46875q-2.515625 -1.5625 -5.203125 -2.453125q-2.6875 -0.90625 -4.8125 -0.90625q-1.90625 0 -3.421875 0.34375q-1.5 0.328125 -2.515625 1.0625q-1.0 0.71875 -1.515625 1.734375q-0.5 1.0 -0.5 2.234375q0 1.234375 0.609375 2.359375q0.625 1.109375 1.75 1.890625q1.234375 0.671875 3.640625 1.578125q2.40625 0.890625 6.546875 2.015625q5.375 1.453125 9.125 3.25q3.75 1.78125 6.0 4.140625q1.90625 2.015625 2.796875 4.59375q0.890625 2.578125 0.890625 5.703125q0 5.5 -3.078125 9.75q-3.078125 4.25 -8.453125 6.71875q-5.375 2.46875 -12.09375 2.46875z" fill-rule="nonzero"/><path fill="#000000" d="m112.57959 404.71002l0 -78.40625l32.15625 0q8.609375 0 15.609375 2.859375q7.0 2.859375 12.09375 8.078125q5.109375 5.203125 7.796875 12.375q2.6875 7.15625 2.6875 15.890625q0 8.625 -2.6875 15.859375q-2.6875 7.21875 -7.734375 12.421875q-5.03125 5.203125 -12.09375 8.0625q-7.0625 2.859375 -15.671875 2.859375l-32.15625 0zm16.796875 -12.203125l-1.78125 -2.921875l16.578125 0q5.03125 0 9.0625 -1.734375q4.03125 -1.734375 6.890625 -4.8125q2.859375 -3.078125 4.3125 -7.5625q1.453125 -4.484375 1.453125 -9.96875q0 -5.484375 -1.453125 -9.90625q-1.453125 -4.421875 -4.3125 -7.5625q-2.859375 -3.140625 -6.890625 -4.875q-4.03125 -1.734375 -9.0625 -1.734375l-16.921875 0l2.125 -2.6875l0 53.765625zm67.88049 12.203125l0 -59.25l15.90625 0l0 59.25l-15.90625 0zm7.84375 -71.34375q-4.59375 0 -7.171875 -2.296875q-2.578125 -2.296875 -2.578125 -6.4375q0 -3.8125 2.625 -6.21875q2.640625 -2.40625 7.125 -2.40625q4.59375 0 7.15625 2.296875q2.578125 2.296875 2.578125 6.328125q0 3.8125 -2.640625 6.28125q-2.625 2.453125 -7.09375 2.453125zm52.06888 97.109375q-7.046875 0 -13.890625 -2.078125q-6.828125 -2.078125 -11.1875 -5.4375l5.703125 -11.3125q2.25 1.578125 5.15625 2.796875q2.90625 1.234375 6.09375 1.90625q3.203125 0.671875 6.5625 0.671875q5.828125 0 9.578125 -1.796875q3.75 -1.78125 5.65625 -5.375q1.90625 -3.578125 1.90625 -8.953125l0 -10.296875l2.6875 0.5625q-0.671875 3.6875 -3.75 6.765625q-3.078125 3.078125 -7.625 4.9375q-4.53125 1.84375 -9.453125 1.84375q-8.1875 0 -14.578125 -3.796875q-6.375 -3.8125 -10.078125 -10.53125q-3.6875 -6.734375 -3.6875 -15.578125q0 -8.84375 3.640625 -15.734375q3.640625 -6.890625 9.96875 -10.859375q6.328125 -3.984375 14.390625 -3.984375q3.359375 0 6.4375 0.796875q3.078125 0.78125 5.703125 2.1875q2.640625 1.390625 4.703125 3.125q2.078125 1.734375 3.421875 3.75q1.34375 2.015625 1.6875 4.03125l-3.25 0.890625l0.453125 -13.546875l15.234375 0l0 54.765625q0 7.28125 -2.140625 12.875q-2.125 5.609375 -6.21875 9.46875q-4.078125 3.875 -9.96875 5.890625q-5.875 2.015625 -13.15625 2.015625zm0.453125 -38.53125q4.703125 0 8.234375 -2.125q3.53125 -2.140625 5.421875 -5.9375q1.90625 -3.8125 1.90625 -8.96875q0 -5.03125 -1.90625 -8.890625q-1.890625 -3.875 -5.421875 -6.0q-3.53125 -2.125 -8.234375 -2.125q-4.59375 0 -8.0625 2.1875q-3.46875 2.171875 -5.4375 6.046875q-1.953125 3.859375 -1.953125 8.78125q0 5.046875 1.953125 8.90625q1.96875 3.859375 5.4375 6.0q3.46875 2.125 8.0625 2.125zm48.162262 12.765625l0 -59.25l15.90625 0l0 59.25l-15.90625 0zm7.84375 -71.34375q-4.59375 0 -7.171875 -2.296875q-2.578125 -2.296875 -2.578125 -6.4375q0 -3.8125 2.625 -6.21875q2.640625 -2.40625 7.125 -2.40625q4.59375 0 7.15625 2.296875q2.578125 2.296875 2.578125 6.328125q0 3.8125 -2.640625 6.28125q-2.625 2.453125 -7.09375 2.453125zm30.787598 71.34375l0 -74.25l15.90625 0l0 74.25l-15.90625 0zm-11.078125 -45.03125l0 -14.21875l39.203125 0l0 14.21875l-39.203125 0zm71.11487 46.15625q-7.390625 0 -13.328125 -4.03125q-5.9375 -4.03125 -9.40625 -10.96875q-3.46875 -6.953125 -3.46875 -15.921875q0 -8.953125 3.515625 -15.890625q3.53125 -6.953125 9.578125 -10.875q6.0625 -3.921875 13.78125 -3.921875q4.375 0 8.015625 1.296875q3.640625 1.28125 6.375 3.53125q2.75 2.234375 4.65625 5.15625q1.90625 2.90625 2.6875 6.265625l-3.359375 -0.5625l0 -14.453125l15.78125 0l0 59.25l-16.015625 0l0 -14.21875l3.59375 -0.34375q-0.90625 3.140625 -2.921875 5.9375q-2.015625 2.796875 -4.984375 4.984375q-2.96875 2.1875 -6.671875 3.484375q-3.6875 1.28125 -7.828125 1.28125zm4.375 -13.78125q4.46875 0 7.828125 -2.125q3.375 -2.125 5.21875 -5.984375q1.84375 -3.875 1.84375 -9.03125q0 -5.03125 -1.84375 -8.84375q-1.84375 -3.8125 -5.21875 -5.984375q-3.359375 -2.1875 -7.828125 -2.1875q-4.375 0 -7.6875 2.1875q-3.296875 2.171875 -5.203125 5.984375q-1.890625 3.8125 -1.890625 8.84375q0 5.15625 1.890625 9.03125q1.90625 3.859375 5.203125 5.984375q3.3125 2.125 7.6875 2.125zm46.474487 12.65625l0 -82.875l15.90625 0l0 82.875l-15.90625 0zm94.07483 1.125q-7.265625 0 -13.265564 -1.796875q-5.984375 -1.796875 -10.640625 -5.265625q-4.640625 -3.46875 -8.34375 -8.40625l10.53125 -11.96875q5.484375 7.609375 10.90625 10.359375q5.437439 2.734375 11.828064 2.734375q3.46875 0 6.203125 -1.0q2.75 -1.015625 4.3125 -2.75q1.578125 -1.734375 1.578125 -4.203125q0 -1.78125 -0.78125 -3.296875q-0.78125 -1.515625 -2.25 -2.6875q-1.453125 -1.1875 -3.46875 -2.125q-2.015625 -0.953125 -4.484375 -1.6875q-2.453125 -0.734375 -5.359375 -1.171875q-6.281189 -1.453125 -10.984314 -3.53125q-4.703125 -2.078125 -7.84375 -5.15625q-3.125 -3.078125 -4.640625 -7.0q-1.515625 -3.921875 -1.515625 -8.84375q0 -5.046875 2.234375 -9.359375q2.25 -4.3125 6.21875 -7.4375q3.984375 -3.140625 9.1875 -4.8125q5.203064 -1.6875 11.031189 -1.6875q7.171875 0 12.546875 1.578125q5.375 1.5625 9.34375 4.640625q3.984375 3.078125 6.671875 7.453125l-10.640625 10.296875q-2.359375 -3.140625 -5.109375 -5.265625q-2.734375 -2.125 -5.921875 -3.1875q-3.1875 -1.0625 -6.546875 -1.0625q-3.703125 0 -6.390625 0.953125q-2.6875 0.953125 -4.203064 2.796875q-1.515625 1.84375 -1.515625 4.3125q0 2.015625 1.0 3.59375q1.015625 1.5625 2.921814 2.734375q1.90625 1.171875 4.59375 2.078125q2.6875 0.890625 5.9375 1.5625q6.15625 1.234375 11.078125 3.25q4.9375 2.015625 8.46875 4.875q3.53125 2.84375 5.421875 6.71875q1.90625 3.859375 1.90625 8.671875q0 7.953125 -3.8125 13.5625q-3.796875 5.59375 -10.515625 8.5625q-6.71875 2.96875 -15.6875 2.96875zm43.015747 -1.125l0 -82.875l15.671875 0l0 35.71875l-3.125 1.34375q1.234375 -4.03125 4.421875 -7.328125q3.1875 -3.3125 7.671875 -5.328125q4.484375 -2.015625 9.40625 -2.015625q6.71875 0 11.25 2.6875q4.546875 2.6875 6.84375 8.125q2.296875 5.4375 2.296875 13.390625l0 36.28125l-15.90625 0l0 -35.0625q0 -4.03125 -1.125 -6.71875q-1.125 -2.6875 -3.421875 -3.90625q-2.296875 -1.234375 -5.65625 -1.125q-2.6875 0 -4.984375 0.84375q-2.28125 0.828125 -3.90625 2.40625q-1.625 1.5625 -2.578125 3.578125q-0.953125 2.015625 -0.953125 4.375l0 35.609375l-7.84375 0q-2.578125 0 -4.59375 0q-2.015625 0 -3.46875 0zm71.00775 0l0 -59.25l15.90625 0l0 59.25l-15.90625 0zm7.84375 -71.34375q-4.59375 0 -7.171875 -2.296875q-2.578125 -2.296875 -2.578125 -6.4375q0 -3.8125 2.625 -6.21875q2.640625 -2.40625 7.125 -2.40625q4.59375 0 7.15625 2.296875q2.578125 2.296875 2.578125 6.328125q0 3.8125 -2.640625 6.28125q-2.625 2.453125 -7.09375 2.453125zm53.193848 72.46875q-9.625 0 -16.859375 -3.921875q-7.21875 -3.921875 -11.203125 -10.75q-3.96875 -6.84375 -3.96875 -15.6875q0 -6.9375 2.234375 -12.640625q2.25 -5.71875 6.28125 -9.921875q4.03125 -4.203125 9.5625 -6.5q5.546875 -2.296875 12.046875 -2.296875q6.046875 0 11.203125 2.25q5.15625 2.234375 8.90625 6.21875q3.75 3.96875 5.765625 9.40625q2.015625 5.421875 1.796875 11.6875l-0.109375 4.9375l-47.609375 0l-2.578125 -9.75l37.078125 0l-1.796875 2.015625l0 -2.453125q-0.21875 -3.03125 -1.953125 -5.4375q-1.734375 -2.40625 -4.421875 -3.796875q-2.6875 -1.40625 -6.046875 -1.40625q-4.9375 0 -8.359375 1.90625q-3.40625 1.890625 -5.203125 5.59375q-1.78125 3.6875 -1.78125 8.953125q0 5.375 2.28125 9.296875q2.296875 3.921875 6.5 6.109375q4.203125 2.1875 9.921875 2.1875q3.90625 0 7.15625 -1.234375q3.25 -1.234375 6.953125 -4.265625l7.609375 10.640625q-3.25 2.921875 -7.171875 4.890625q-3.90625 1.953125 -8.0625 2.953125q-4.140625 1.015625 -8.171875 1.015625zm37.631958 -1.125l0 -82.875l15.90625 0l0 82.875l-15.90625 0zm54.10211 1.125q-7.84375 0 -13.953125 -3.96875q-6.09375 -3.984375 -9.625 -10.875q-3.53125 -6.890625 -3.53125 -15.96875q0 -8.84375 3.53125 -15.84375q3.53125 -7.0 9.625 -10.96875q6.109375 -3.984375 13.953125 -3.984375q4.140625 0 8.0 1.296875q3.875 1.28125 6.953125 3.53125q3.078125 2.234375 4.96875 4.984375q1.90625 2.734375 2.140625 5.640625l-4.03125 0.796875l0 -38.640625l16.015625 0l0 82.875l-15.125 0l-0.671875 -13.65625l3.140625 0.328125q-0.234375 2.796875 -2.03125 5.375q-1.78125 2.578125 -4.75 4.65625q-2.96875 2.0625 -6.71875 3.25q-3.75 1.171875 -7.890625 1.171875zm3.578125 -13.21875q4.484375 0 7.84375 -2.234375q3.359375 -2.25 5.265625 -6.171875q1.90625 -3.921875 1.90625 -9.1875q0 -5.140625 -1.90625 -9.0625q-1.90625 -3.921875 -5.265625 -6.15625q-3.359375 -2.25 -7.84375 -2.25q-4.484375 0 -7.796875 2.25q-3.296875 2.234375 -5.140625 6.15625q-1.84375 3.921875 -1.84375 9.0625q0 5.265625 1.84375 9.1875q1.84375 3.921875 5.140625 6.171875q3.3125 2.234375 7.796875 2.234375z" fill-rule="nonzero"/></g></svg>